<svg xmlns="http://www.w3.org/2000/svg" viewBox="0 0 144 144" width="24px" height="24px"><path d="M133.37 0H10.63A10.63 10.63 0 0 0 0 10.63v122.74A10.63 10.63 0 0 0 10.63 144h122.74A10.63 10.63 0 0 0 144 133.37V10.63A10.63 10.63 0 0 0 133.37 0zM42.92 122.68H21.27V53.9h21.65zM32.1 44.37A12.25 12.25 0 0 1 19.61 32 12.27 12.27 0 0 1 32.1 19.51 12.27 12.27 0 0 1 44.58 32 12.25 12.25 0 0 1 32.1 44.37zm90.63 78.36h-21.65V85.17c0-11.09-4.71-14.51-10.78-14.51-6.43 0-12.73 4.84-12.73 14.78v37.29H55.93V54h20.82v9.53H77C79.12 59.25 86.43 52 97.6 52c12.08 0 25.13 7.17 25.13 28.17z" data-name="Calque 2"/></svg>